[Taichi] version 1.5.0, llvm 15.0.4, commit 7b885c28, linux, python 3.9.20
Warp 0.10.1 initialized:
   CUDA Toolkit: 11.5, Driver: 12.2
   Devices:
     "cpu"    | x86_64
     "cuda:0" | NVIDIA GeForce RTX 4090 (sm_89)
   Kernel cache: /home/jiahao/.cache/warp/0.10.1
[Taichi] Starting on arch=cuda
Loading scene config...
Loading gaussians...
Initializing scene and pre-processing...
Initializing MPM solver and setting up boundary conditions...
Module warp_utils load on device 'cuda:0' took 6.08 ms
Particles initialized from torch data.
Total particles:  171553
Module mpm_utils load on device 'cuda:0' took 192.45 ms
  0%|                                                                                                                                                                                  | 0/125 [00:00<?, ?it/s]Module mpm_solver_warp.mpm_solver_warp load on device 'cuda:0' took 6.94 ms
100%|████████████████████████████████████████████████████████████████████████████████████████████████████████████████████████████████████████████████████████████████████████| 125/125 [00:50<00:00,  2.50it/s]
ffmpeg version 4.2.7-0ubuntu0.1 Copyright (c) 2000-2022 the FFmpeg developers
  built with gcc 9 (Ubuntu 9.4.0-1ubuntu1~20.04.1)
  configuration: --prefix=/usr --extra-version=0ubuntu0.1 --toolchain=hardened --libdir=/usr/lib/x86_64-linux-gnu --incdir=/usr/include/x86_64-linux-gnu --arch=amd64 --enable-gpl --disable-stripping --enable-avresample --disable-filter=resample --enable-avisynth --enable-gnutls --enable-ladspa --enable-libaom --enable-libass --enable-libbluray --enable-libbs2b --enable-libcaca --enable-libcdio --enable-libcodec2 --enable-libflite --enable-libfontconfig --enable-libfreetype --enable-libfribidi --enable-libgme --enable-libgsm --enable-libjack --enable-libmp3lame --enable-libmysofa --enable-libopenjpeg --enable-libopenmpt --enable-libopus --enable-libpulse --enable-librsvg --enable-librubberband --enable-libshine --enable-libsnappy --enable-libsoxr --enable-libspeex --enable-libssh --enable-libtheora --enable-libtwolame --enable-libvidstab --enable-libvorbis --enable-libvpx --enable-libwavpack --enable-libwebp --enable-libx265 --enable-libxml2 --enable-libxvid --enable-libzmq --enable-libzvbi --enable-lv2 --enable-omx --enable-openal --enable-opencl --enable-opengl --enable-sdl2 --enable-libdc1394 --enable-libdrm --enable-libiec61883 --enable-nvenc --enable-chromaprint --enable-frei0r --enable-libx264 --enable-shared
  libavutil      56. 31.100 / 56. 31.100
  libavcodec     58. 54.100 / 58. 54.100
  libavformat    58. 29.100 / 58. 29.100
  libavdevice    58.  8.100 / 58.  8.100
  libavfilter     7. 57.100 /  7. 57.100
  libavresample   4.  0.  0 /  4.  0.  0
  libswscale      5.  5.100 /  5.  5.100
  libswresample   3.  5.100 /  3.  5.100
  libpostproc    55.  5.100 / 55.  5.100
Input #0, image2, from 'output/%04d.png':
  Duration: 00:00:05.00, start: 0.000000, bitrate: N/A
    Stream #0:0: Video: png, rgb24(pc), 800x800, 25 fps, 25 tbr, 25 tbn, 25 tbc
Stream mapping:
  Stream #0:0 -> #0:0 (png (native) -> h264 (libx264))
Press [q] to stop, [?] for help
[libx264 @ 0x5622b494e8c0] using cpu capabilities: MMX2 SSE2Fast SSSE3 SSE4.2 AVX FMA3 BMI2 AVX2 AVX512
[libx264 @ 0x5622b494e8c0] profile High, level 3.1
[libx264 @ 0x5622b494e8c0] 264 - core 155 r2917 0a84d98 - H.264/MPEG-4 AVC codec - Copyleft 2003-2018 - http://www.videolan.org/x264.html - options: cabac=1 ref=3 deblock=1:0:0 analyse=0x3:0x113 me=hex subme=7 psy=1 psy_rd=1.00:0.00 mixed_ref=1 me_range=16 chroma_me=1 trellis=1 8x8dct=1 cqm=0 deadzone=21,11 fast_pskip=1 chroma_qp_offset=-2 threads=25 lookahead_threads=4 sliced_threads=0 nr=0 decimate=1 interlaced=0 bluray_compat=0 constrained_intra=0 bframes=3 b_pyramid=2 b_adapt=1 b_bias=0 direct=1 weightb=1 open_gop=0 weightp=2 keyint=250 keyint_min=25 scenecut=40 intra_refresh=0 rc_lookahead=40 rc=crf mbtree=1 crf=23.0 qcomp=0.60 qpmin=0 qpmax=69 qpstep=4 ip_ratio=1.40 aq=1:1.00
Output #0, mp4, to 'output/output.mp4':
  Metadata:
    encoder         : Lavf58.29.100
    Stream #0:0: Video: h264 (libx264) (avc1 / 0x31637661), yuv420p, 800x800, q=-1--1, 25 fps, 12800 tbn, 25 tbc
    Metadata:
      encoder         : Lavc58.54.100 libx264
    Side data:
      cpb: bitrate max/min/avg: 0/0/0 buffer size: 0 vbv_delay: -1
frame=  125 fps= 33 q=-1.0 Lsize=     437kB time=00:00:04.88 bitrate= 733.8kbits/s speed=1.31x    
video:435kB audio:0kB subtitle:0kB other streams:0kB global headers:0kB muxing overhead: 0.457607%
[libx264 @ 0x5622b494e8c0] frame I:1     Avg QP:17.89  size: 16439
[libx264 @ 0x5622b494e8c0] frame P:70    Avg QP:23.28  size:  5460
[libx264 @ 0x5622b494e8c0] frame B:54    Avg QP:28.31  size:   856
[libx264 @ 0x5622b494e8c0] consecutive B-frames: 34.4% 22.4%  4.8% 38.4%
[libx264 @ 0x5622b494e8c0] mb I  I16..4: 29.0% 61.5%  9.5%
[libx264 @ 0x5622b494e8c0] mb P  I16..4:  0.1%  0.5%  0.1%  P16..4:  5.0%  5.5%  6.0%  0.0%  0.0%    skip:82.8%
[libx264 @ 0x5622b494e8c0] mb B  I16..4:  0.0%  0.1%  0.0%  B16..8:  7.5%  1.6%  0.5%  direct: 0.5%  skip:89.8%  L0:19.7% L1:35.3% BI:45.1%
[libx264 @ 0x5622b494e8c0] 8x8 transform intra:65.8% inter:38.6%
[libx264 @ 0x5622b494e8c0] coded y,uvDC,uvAC intra: 14.6% 16.0% 14.1% inter: 5.0% 4.4% 2.4%
[libx264 @ 0x5622b494e8c0] i16 v,h,dc,p: 87%  4%  9%  0%
[libx264 @ 0x5622b494e8c0] i8 v,h,dc,ddl,ddr,vr,hd,vl,hu: 29% 10% 55%  1%  1%  1%  1%  1%  1%
[libx264 @ 0x5622b494e8c0] i4 v,h,dc,ddl,ddr,vr,hd,vl,hu: 17% 14% 19%  8%  9%  9%  8%  9%  7%
[libx264 @ 0x5622b494e8c0] i8c dc,h,v,p: 80%  6% 12%  2%
[libx264 @ 0x5622b494e8c0] Weighted P-Frames: Y:0.0% UV:0.0%
[libx264 @ 0x5622b494e8c0] ref P L0: 78.5% 17.1%  3.3%  1.1%
[libx264 @ 0x5622b494e8c0] ref B L0: 96.7%  2.9%  0.4%
[libx264 @ 0x5622b494e8c0] ref B L1: 99.4%  0.6%
[libx264 @ 0x5622b494e8c0] kb/s:711.82